<svg xmlns="http://www.w3.org/2000/svg" width="256" height="256"><path fill="#1976D2" fill-opacity=".016" fill-rule="evenodd" d="M0 128.004v128.004l128.25-.254 128.25-.254.254-127.75L257.008 0H0zm.485.496c0 70.4.119 99.053.265 63.672s.146-92.98 0-128S.485 58.1.485 128.5"/><path fill="#1976D2" fill-opacity=".103" fill-rule="evenodd" d="M101.5.618C74.272 4.505 65.005 6.933 50.362 14.02 23.422 27.057 8.583 47.535 2.258 80.402c-2.585 13.436-2.585 81.76 0 95.196 8.616 44.775 34.476 68.628 84.242 77.708 10.588 1.931 15.471 2.189 41.5 2.189s30.912-.258 41.5-2.189c42.815-7.811 68.425-27.08 79.58-59.877 3.023-8.887 5.92-23.08 5.92-29.001 0-1.82.45-3.588 1-3.928.634-.392 1-12.697 1-33.618 0-21.745-.341-32.789-1-32.382-.592.366-1-.779-1-2.81 0-6.028-2.873-20.162-5.92-29.119-11.05-32.486-36.69-51.972-78.58-59.719C161.541 1.196 154.396.76 132 .504c-15.125-.173-28.85-.122-30.5.114M.448 128c0 18.425.135 25.963.3 16.75s.165-24.287 0-33.5-.3-1.675-.3 16.75m70.165-22.379c-2.866 8.412-4.005 21.366-2.743 31.203 1.067 8.323 3.859 18.78 4.77 17.869.229-.229-.087-1.716-.702-3.304-1.507-3.897-1.507-42.881 0-46.778.615-1.588.931-3.075.702-3.304-.228-.228-1.14 1.713-2.027 4.314m53.962 4.968c-3.214 7.375-7.502 11.465-14.763 14.076-2.647.951-4.812 2.056-4.812 2.455s1.688 1.275 3.75 1.947c7.462 2.432 11.948 6.49 15.663 14.171l3.475 7.185 1.121-2.946c3.792-9.975 7.907-14.447 16.507-17.942l5.817-2.364-6.452-2.925c-7.321-3.32-12.801-8.944-14.894-15.285-.737-2.234-1.623-4.236-1.968-4.449s-1.895 2.521-3.444 6.077M69.158 117c0 1.375.227 1.938.504 1.25.278-.687.278-1.812 0-2.5-.277-.687-.504-.125-.504 1.25m114.317 1.808c-1.111 2.073-3.619 4.566-5.724 5.691-2.06 1.1-3.746 2.226-3.746 2.501s1.675 1.4 3.722 2.5c2.061 1.107 4.684 3.719 5.876 5.852l2.155 3.852 2.295-4.084c1.429-2.543 3.755-4.806 6.169-6l3.875-1.917-4.199-2.351c-2.31-1.294-4.996-3.854-5.97-5.69s-1.93-3.497-2.124-3.691c-.193-.194-1.242 1.308-2.329 3.337M68.272 128c0 2.475.195 3.488.434 2.25.238-1.238.238-3.263 0-4.5-.239-1.237-.434-.225-.434 2.25m.886 11c0 1.375.227 1.938.504 1.25.278-.687.278-1.812 0-2.5-.277-.687-.504-.125-.504 1.25"/><path fill="#1976D2" fill-opacity=".298" fill-rule="evenodd" d="M99.5 1.035C49.238 6.647 18.605 27.444 6.672 64.057 1.255 80.678.511 88.406.511 128c0 31.26.265 37.928 1.849 46.443 4.282 23.019 10.899 36.768 24.14 50.158 15.675 15.851 32.85 23.731 63.5 29.136 14.258 2.514 61.342 2.463 76.47-.083 43.823-7.375 69.534-25.859 81.985-58.939 2.809-7.462 6.545-25.847 6.545-32.207 0-2.414.45-4.668 1-5.008.631-.39 1-11.697 1-30.618 0-19.745-.342-29.789-1-29.382-.61.377-1-1.139-1-3.89 0-6.461-3.714-24.804-6.545-32.325-8.352-22.189-23.758-38.775-44.781-48.207C183.433 3.997 165.89.887 132.5.46c-13.75-.175-28.6.083-33 .575m14.256 71.05c-31.155 4.564-47.97 26.072-46.45 59.415.6 13.146 2.997 21.564 8.616 30.258 10.238 15.84 32.199 24.694 56.078 22.609 6.543-.571 8.177-.931 5.25-1.156l-4.25-.326v-5.942c0-5.454-.185-5.955-2.25-6.085-1.238-.078-.45-.464 1.75-.858 3.289-.589 2.578-.744-4-.873-15.683-.307-25.86-4.185-33.368-12.714-6.721-7.636-8.555-13.728-8.555-28.413s1.834-20.777 8.555-28.413c7.513-8.534 17.711-12.417 33.368-12.704 6.185-.113 7.206-.313 4.5-.883-1.925-.405-2.713-.796-1.75-.868 1.458-.11 1.75-1.135 1.75-6.132v-6l4.25-.141c4.145-.137 4.114-.159-1.25-.901-7.073-.978-15.01-.932-22.244.127m25.057 15.598c.721.289 1.584.253 1.916-.079s-.258-.568-1.312-.525c-1.165.048-1.402.285-.604.604M.444 128c0 16.775.137 23.637.304 15.25s.167-22.113 0-30.5S.444 111.225.444 128m125.504-21.25c-2.545 6.985-3.436 8.445-7.368 12.069-2.308 2.128-6.308 4.676-8.889 5.661S105 126.608 105 127.02s2.408 1.725 5.352 2.92c6.648 2.698 12.134 8.196 14.562 14.594 1.021 2.689 2.252 5.021 2.735 5.182s1.695-2.006 2.693-4.816c2.378-6.696 8.594-12.849 15.408-15.25 2.887-1.018 5.25-2.167 5.25-2.553s-2.313-1.534-5.14-2.55c-6.904-2.483-13.14-8.644-15.482-15.297-1.016-2.888-2.203-5.25-2.637-5.25s-1.241 1.237-1.793 2.75m57.577 11.556c-1.151 2.427-3.402 4.71-6.339 6.431l-4.554 2.669 2.593 1.06c3.422 1.398 6.647 4.385 8.403 7.782 1.522 2.942 3.372 3.671 3.372 1.329 0-2.21 4.63-7.181 7.98-8.569 3.639-1.507 3.84-2.585.631-3.391-2.273-.57-6.848-5.138-9.206-9.19-.995-1.711-1.257-1.54-2.88 1.879m-44.712 50.377c.721.289 1.584.253 1.916-.079s-.258-.568-1.312-.525c-1.165.048-1.402.285-.604.604"/><path fill="#1976D2" fill-opacity=".987" fill-rule="evenodd" d="M104.056 1.04C44.57 6.784 13.336 30.593 3.556 77.649c-4.703 22.627-4.703 78.075 0 100.702 8.768 42.189 34.342 65.25 82.146 74.075 29.405 5.428 69.633 4.244 97.703-2.877 23.33-5.918 42.142-17.647 53.234-33.192 10.752-15.067 18.271-39.48 18.341-59.548.011-3.13.47-5.969 1.02-6.309.62-.383 1-9.363 1-23.618 0-15.079-.344-22.787-1-22.382-.622.384-1.007-1.577-1.02-5.191-.046-13.682-4.295-32.754-10.059-45.153-13.682-29.43-38.201-45.045-81.075-51.632-12.414-1.907-46.619-2.756-59.79-1.484m3.177 71.893c-10.825 2.659-19.228 7.351-26.234 14.647-9.947 10.358-14.261 22.587-14.261 40.42 0 17.866 4.312 30.06 14.316 40.478C91.98 179.856 106.373 185 127.287 185c22.407 0 41.805-8.116 50.384-21.079l2.665-4.028-6.389-6.446c-3.514-3.546-6.956-6.447-7.648-6.447s-2.145 1.738-3.229 3.863c-3.178 6.229-10.949 12.488-18.642 15.013-8.913 2.926-24.201 3.073-33.054.317-16.699-5.197-24.761-17.632-24.761-38.193s8.062-32.996 24.761-38.193c8.853-2.756 24.141-2.609 33.054.317 7.693 2.525 15.464 8.784 18.642 15.013 1.084 2.125 2.537 3.863 3.229 3.863s4.134-2.901 7.648-6.447l6.389-6.446-2.665-4.028C172.033 83.559 160.726 76.638 146.5 73c-10.226-2.615-28.766-2.647-39.267-.067m18.725 32.817c-3.916 10.856-7.157 14.483-16.337 18.288-3.113 1.29-5.519 2.767-5.348 3.281s2.705 1.828 5.631 2.92c6.664 2.486 12.108 7.849 14.508 14.291 1.018 2.734 2.227 5.383 2.686 5.887.473.519 2.102-1.87 3.751-5.5 3.483-7.667 7.883-12.091 14.651-14.731 2.75-1.073 5-2.499 5-3.169s-2.054-1.997-4.565-2.95c-7.527-2.858-10.813-5.97-14.587-13.816-1.918-3.988-3.692-7.251-3.943-7.251s-.901 1.237-1.447 2.75M.43 128c0 12.925.143 18.213.317 11.75s.174-17.038 0-23.5C.573 109.787.43 115.075.43 128m183.578-11.5c-1.477 3.882-4.469 7.034-8.107 8.541-3.807 1.577-3.66 2.615.622 4.404 1.958.818 4.29 2.856 5.25 4.588 3.664 6.611 3.66 6.61 6.523 1.725 1.624-2.771 3.992-5.142 6.17-6.175 4.445-2.109 4.448-3.174.011-5.028-1.958-.818-4.29-2.856-5.25-4.588-3.639-6.567-3.959-6.779-5.219-3.467"/></svg>