<?xml version="1.0" encoding="UTF-8"?>
<svg id="b" data-name="Layer_2" xmlns="http://www.w3.org/2000/svg" width="148.798" height="148.798" xmlns:xlink="http://www.w3.org/1999/xlink" viewBox="0 0 148.798 148.798">
  <defs>
    <linearGradient id="d" x1="38.706" y1="74.399" x2="104.586" y2="74.399" gradientUnits="userSpaceOnUse">
      <stop offset="0" stop-color="#ebff46"/>
      <stop offset=".501" stop-color="#21f97d"/>
      <stop offset="1" stop-color="#00b7ff"/>
    </linearGradient>
  </defs>
  <g id="c" data-name="Layer_1">
    <g>
      <path d="M74.399,0C.028,0,0,43.594,0,74.399s.028,74.399,74.399,74.399,74.399-43.519,74.399-74.399S148.769,0,74.399,0Z"/>
      <g>
        <path d="M97.887,85.792c-.717-.717-1.917-.462-2.313.472-.254.599-.534,1.166-.83,1.712-.119.1-.228.215-.312.358-3.909,6.676-10.971,9.29-18.748,9.604-.543.02-1.09.033-1.645.033-.167,0-.331-.005-.497-.007-12.696-.153-22.483-6.182-23.364-21.257-.042-.748-.07-1.513-.071-2.308,0-.796.029-1.56.071-2.308.881-15.075,10.668-21.104,23.364-21.257.166-.002.33-.007.497-.007.555,0,1.102.013,1.645.033,7.777.314,14.839,2.928,18.748,9.604.084.144.194.258.312.358.296.547.576,1.113.83,1.712.396.934,1.596,1.189,2.313.472l6.275-6.275c.464-.464.564-1.196.213-1.75-5.569-8.781-16.238-13.395-28.277-13.866-.689-.03-1.376-.047-2.059-.047-18.426,0-33.846,8.52-35.222,30.178-.066,1.01-.111,2.037-.111,3.102,0,.017.001.034.001.051s-.001.034-.001.051c0,1.065.045,2.092.111,3.102,1.377,21.657,16.797,30.178,35.222,30.178.683,0,1.37-.016,2.059-.047,12.039-.471,22.708-5.085,28.277-13.866.352-.554.251-1.286-.213-1.75l-6.275-6.275Z" fill="url(#d)"/>
        <path d="M84.01,71.974c-3.655-1.353-6.537-4.235-7.89-7.89l-1.293-3.494c-.206-.557-.993-.557-1.199,0l-1.293,3.494c-1.353,3.655-4.234,6.537-7.89,7.89l-3.494,1.293c-.557.206-.557.993,0,1.199l3.494,1.293c3.655,1.353,6.537,4.235,7.89,7.89l1.293,3.494c.206.557.993.557,1.199,0l1.293-3.494c1.353-3.655,4.235-6.537,7.89-7.89l3.494-1.293c.557-.206.557-.993,0-1.199l-3.494-1.293Z" fill="#fff"/>
        <path d="M114.718,73.226l-1.07-.396c-2.187-.809-3.912-2.534-4.721-4.721l-.396-1.07c-.22-.595-1.062-.595-1.282,0l-.396,1.07c-.809,2.187-2.534,3.912-4.721,4.721l-1.07.396c-.595.22-.595,1.062,0,1.282l1.07.396c2.187.809,3.912,2.534,4.721,4.721l.396,1.07c.22.595,1.062.595,1.282,0l.396-1.07c.809-2.187,2.534-3.912,4.721-4.721l1.07-.396c.595-.22.595-1.062,0-1.282Z" fill="#fff"/>
      </g>
    </g>
  </g>
</svg>